<?xml version="1.0" encoding="utf-8"?>
<!-- Generator: Adobe Illustrator 16.0.5, SVG Export Plug-In . SVG Version: 6.00 Build 0)  -->
<!DOCTYPE svg PUBLIC "-//W3C//DTD SVG 1.1//EN" "http://www.w3.org/Graphics/SVG/1.1/DTD/svg11.dtd">
<svg version="1.1" id="Layer_1" xmlns="http://www.w3.org/2000/svg" xmlns:xlink="http://www.w3.org/1999/xlink" x="0px" y="0px"
	 width="298px" height="195px" viewBox="0 0 298 195" enable-background="new 0 0 298 195" xml:space="preserve">
<rect fill="#EAE6DD" width="298" height="195"/>
<rect y="148.667" fill="#D5CAC1" width="298" height="46.208"/>
<line fill="none" stroke="#93BFC1" stroke-width="7.9025" stroke-miterlimit="10" x1="205.477" y1="77.205" x2="205.477" y2="157.25"/>
<path fill="#6B5C4F" d="M204.176,47.634h32.016c3.759,0,6.806,3.825,6.806,8.412s-3.047,8.413-6.806,8.413h-1.314
	c1.604-1.019,2.688-3.201,2.688-5.591c0-3.494-2.32-6.391-5.184-6.391h-24.395c-2.862,0-5.184,2.897-5.184,6.391
	c0,2.39,1.086,4.572,2.688,5.591h-1.314c-3.758,0-6.805-3.826-6.805-8.413S200.418,47.634,204.176,47.634"/>
<path fill="#857364" d="M204.176,49.163h32.016c3.759,0,6.806,3.827,6.806,8.413s-3.047,8.412-6.806,8.412h-1.314
	c1.604-1.019,2.688-3.201,2.688-5.59c0-3.494-2.32-6.391-5.184-6.391h-24.395c-2.862,0-5.184,2.896-5.184,6.391
	c0,2.389,1.086,4.571,2.688,5.59h-1.314c-3.758,0-6.805-3.825-6.805-8.412C197.371,52.99,200.418,49.163,204.176,49.163"/>
<path fill="#6B5C4F" d="M165.326,132.729c0,15.188,7.195,27.834,16.037,27.834h76.039c8.842,0,16.01-12.646,16.01-27.834V88.735
	c0-15.184-7.168-27.591-16.01-27.591h-76.039c-8.842,0-16.037,12.407-16.037,27.591V132.729z"/>
<path fill="#857364" d="M166.855,133.605c0,14.699,7.285,26.957,15.821,26.957h73.41c8.536,0,15.795-12.258,15.795-26.957V91.018
	c0-14.7-7.259-25.795-15.795-25.795h-73.41c-8.536,0-15.821,11.095-15.821,25.795V133.605z"/>
<line fill="none" stroke="#93BFC1" stroke-width="7.1378" stroke-miterlimit="10" x1="256.078" y1="61.144" x2="256.078" y2="160.562"/>
<line fill="none" stroke="#93BFC1" stroke-width="7.1378" stroke-miterlimit="10" x1="187.25" y1="61.144" x2="187.25" y2="160.562"/>
<path fill="#A39382" d="M179.361,89.951h32.018c3.757,0,6.805,3.826,6.805,8.412c0,4.587-3.048,8.412-6.805,8.412h-1.316
	c1.604-1.02,2.688-3.201,2.688-5.59c0-3.495-2.319-6.392-5.183-6.392h-24.395c-2.863,0-5.184,2.896-5.184,6.392
	c0,2.389,1.086,4.57,2.688,5.59h-1.314c-3.758,0-6.805-3.825-6.805-8.412C172.559,93.777,175.605,89.951,179.361,89.951"/>
<path fill="#EAE6DD" d="M179.361,91.734h32.018c3.757,0,6.805,3.826,6.805,8.413c0,4.586-3.048,8.412-6.805,8.412h-1.316
	c1.604-1.273,2.688-3.199,2.688-5.59c0-3.492-2.319-6.391-5.183-6.391h-24.395c-2.863,0-5.184,2.896-5.184,6.391
	c0,2.391,1.086,4.315,2.688,5.59h-1.314c-3.758,0-6.805-3.826-6.805-8.412C172.559,95.561,175.605,91.734,179.361,91.734"/>
<path fill="#A39382" d="M140.599,145.32c0,8.841,7.167,16.008,16.008,16.008h76.07c8.842,0,16.008-7.167,16.008-16.008v-25.596
	c0-8.842-7.166-16.009-16.008-16.009h-76.07c-8.841,0-16.008,7.167-16.008,16.009V145.32z"/>
<path fill="#EAE6DD" d="M142.894,146.1c0,8.393,6.435,15.994,14.971,15.994h73.41c8.537,0,16.646-7.603,16.646-15.994v-24.31
	c0-8.392-8.108-14.25-16.646-14.25h-73.41c-8.536,0-14.971,5.858-14.971,14.25V146.1z"/>
<line fill="none" stroke="#58A3A3" stroke-width="5.6082" stroke-miterlimit="10" x1="231.352" y1="103.717" x2="231.352" y2="161.991"/>
<line fill="none" stroke="#58A3A3" stroke-width="5.6082" stroke-miterlimit="10" x1="162.521" y1="103.717" x2="162.521" y2="161.991"/>
<rect x="28.303" y="36.771" fill="#F9F8F5" width="119.955" height="142.708"/>
<rect x="60.605" y="111.18" fill="#94BDC1" width="76.557" height="8.557"/>
<rect x="60.605" y="77.216" fill="#94BDC1" width="76.557" height="8.562"/>
<rect x="60.605" y="145.268" fill="#94BDC1" width="76.557" height="8.56"/>
<rect x="38.369" y="74.427" fill="#FFFFFF" width="14.202" height="14.204"/>
<path fill="#73A1A3" d="M64.06,62.605c-2.775,2.223-6.945,6.329-10.14,10.104c-3.668,4.335-6.19,7.499-7.919,11.22l-0.81,0.558
	c-0.128-0.341-0.275-0.714-0.441-1.126l-0.524-1.244c-0.754-1.793-1.455-3.118-2.102-3.973c-0.644-0.857-1.535-1.527-2.339-1.809
	c-0.273,0.201-0.555,0.438-0.842,0.709l-0.042,0.035l-0.073,0.071c-0.151,0.147-0.306,0.304-0.461,0.475
	c0.803,0.279,1.525,0.848,2.172,1.707c0.647,0.855,1.347,2.18,2.102,3.97l0.526,1.247c0.307,0.765,0.551,1.408,0.738,1.931
	c0.149,0.414,0.262,0.76,0.333,1.025c0.068-0.066,0.149-0.141,0.238-0.217l0.005-0.004l0.032-0.025
	c0.257-0.225,0.598-0.494,1.019-0.811c0.08-0.059,0.163-0.123,0.252-0.186l0.01-0.008c0.241-0.176,0.508-0.371,0.796-0.571
	l1.392-0.963c1.73-3.721,4.238-7.728,7.524-12.013c3.288-4.287,6.271-7.46,8.955-9.52L64.06,62.605z"/>
<path fill="#94BDC1" d="M42.124,78.144c0.648,0.855,1.349,2.18,2.102,3.973l0.525,1.244c0.166,0.413,0.312,0.786,0.441,1.126
	l0.81-0.558c1.729-3.721,4.25-6.885,7.921-11.22c3.192-3.775,7.362-7.881,10.137-10.103l0.402,0.583l-0.659-0.959
	c-3.177,1.843-6.421,4.486-9.745,7.925c-3.324,3.442-6.043,6.986-8.162,10.634l-0.586-1.344c-1.179-2.675-2.25-4.012-3.215-4.012
	c-0.722,0-1.491,0.305-2.309,0.902C40.589,76.618,41.481,77.287,42.124,78.144"/>
<rect x="38.369" y="108.184" fill="#FFFFFF" width="14.202" height="14.203"/>
<path fill="#73A1A3" d="M64.06,96.224c-2.775,2.223-6.945,6.328-10.14,10.104c-3.668,4.332-6.19,7.498-7.919,11.221l-0.81,0.553
	c-0.128-0.338-0.275-0.709-0.441-1.121l-0.524-1.248c-0.754-1.791-1.455-3.114-2.102-3.975c-0.644-0.854-1.535-1.525-2.339-1.807
	c-0.273,0.203-0.555,0.439-0.842,0.709l-0.042,0.037l-0.073,0.072c-0.151,0.147-0.306,0.303-0.461,0.473
	c0.803,0.279,1.525,0.848,2.172,1.707c0.647,0.854,1.347,2.182,2.102,3.971l0.526,1.246c0.307,0.766,0.551,1.408,0.738,1.934
	c0.149,0.414,0.262,0.76,0.333,1.023c0.068-0.066,0.149-0.141,0.238-0.215l0.005-0.004l0.032-0.031
	c0.257-0.223,0.598-0.488,1.019-0.803c0.08-0.062,0.163-0.125,0.252-0.189l0.01-0.008c0.241-0.174,0.508-0.367,0.796-0.572
	l1.392-0.959c1.73-3.721,4.238-7.729,7.524-12.014c3.288-4.289,6.271-7.461,8.955-9.521L64.06,96.224z"/>
<path fill="#94BDC1" d="M42.124,111.757c0.648,0.859,1.349,2.185,2.102,3.976l0.525,1.248c0.166,0.414,0.312,0.783,0.441,1.121
	l0.81-0.554c1.729-3.723,4.25-6.889,7.921-11.221c3.192-3.775,7.362-7.882,10.137-10.104l0.402,0.582l-0.659-0.959
	c-3.177,1.844-6.421,4.486-9.745,7.923c-3.324,3.443-6.043,6.99-8.162,10.638l-0.586-1.347c-1.179-2.672-2.25-4.012-3.215-4.012
	c-0.722,0-1.491,0.303-2.309,0.9C40.589,110.23,41.481,110.902,42.124,111.757"/>
<rect x="38.369" y="142.359" fill="#FFFFFF" width="14.202" height="14.201"/>
<path fill="#73A1A3" d="M64.06,131.504c-2.775,2.223-6.945,6.33-10.14,10.105c-3.668,4.334-6.19,7.5-7.919,11.221l-0.81,0.555
	c-0.128-0.342-0.275-0.711-0.441-1.125l-0.524-1.246c-0.754-1.793-1.455-3.115-2.102-3.973c-0.644-0.857-1.535-1.527-2.339-1.809
	c-0.273,0.205-0.555,0.438-0.842,0.711l-0.042,0.033l-0.073,0.073c-0.151,0.147-0.306,0.304-0.461,0.474
	c0.803,0.281,1.525,0.848,2.172,1.707c0.647,0.854,1.347,2.182,2.102,3.971l0.526,1.248c0.307,0.764,0.551,1.406,0.738,1.93
	c0.149,0.416,0.262,0.762,0.333,1.027c0.068-0.068,0.149-0.144,0.238-0.217l0.005-0.008l0.032-0.025
	c0.257-0.223,0.598-0.49,1.019-0.807c0.08-0.06,0.163-0.123,0.252-0.188l0.01-0.009c0.241-0.176,0.508-0.368,0.796-0.573
	l1.392-0.961c1.73-3.72,4.238-7.724,7.524-12.011c3.288-4.289,6.271-7.459,8.955-9.521L64.06,131.504z"/>
<path fill="#94BDC1" d="M42.124,147.041c0.648,0.857,1.349,2.18,2.102,3.973l0.525,1.246c0.166,0.414,0.312,0.783,0.441,1.125
	l0.81-0.555c1.729-3.721,4.25-6.887,7.921-11.221c3.192-3.777,7.362-7.883,10.137-10.105l0.402,0.584l-0.659-0.959
	c-3.177,1.844-6.421,4.488-9.745,7.924c-3.324,3.445-6.043,6.99-8.162,10.639l-0.586-1.35c-1.179-2.672-2.25-4.01-3.215-4.01
	c-0.722,0-1.491,0.305-2.309,0.9C40.589,145.516,41.481,146.184,42.124,147.041"/>
<path fill="#D5CAC1" d="M37.126,36.71l0.05,9.903c0.005,2.537,1.912,4.591,4.251,4.578c2.337-0.011,4.221-2.077,4.209-4.62
	l-0.047-9.86L37.126,36.71L37.126,36.71z"/>
<path fill="#D5CAC1" d="M53.281,36.71l0.046,9.828c0.01,2.536,1.918,4.589,4.257,4.579c2.334-0.013,4.221-2.084,4.212-4.626
	l-0.048-9.78L53.281,36.71L53.281,36.71z"/>
<path fill="#D5CAC1" d="M69.44,36.71l0.044,9.749c0.011,2.542,1.92,4.588,4.251,4.577c2.345-0.012,4.229-2.077,4.215-4.615
	l-0.043-9.711H69.44z"/>
<path fill="#D5CAC1" d="M85.594,36.71l0.045,9.673c0.015,2.539,1.917,4.594,4.253,4.581c2.337-0.01,4.225-2.083,4.21-4.618
	l-0.045-9.635L85.594,36.71L85.594,36.71z"/>
<path fill="#D5CAC1" d="M101.75,36.71l0.044,9.598c0.011,2.539,1.921,4.589,4.254,4.581c2.337-0.013,4.222-2.079,4.21-4.619
	l-0.042-9.56H101.75z"/>
<path fill="#D5CAC1" d="M117.906,36.71l0.045,9.686c0.015,2.539,1.917,4.594,4.253,4.581c2.337-0.01,4.225-2.083,4.21-4.618
	l-0.045-9.648L117.906,36.71L117.906,36.71z"/>
<path fill="#D5CAC1" d="M134.062,36.71l0.044,9.611c0.011,2.539,1.921,4.589,4.254,4.581c2.337-0.013,4.222-2.079,4.21-4.619
	l-0.042-9.573H134.062z"/>
<path fill="#73A1A3" d="M44.576,30.946c-0.012-2.54-1.912-4.59-4.25-4.582c-2.339,0.012-4.226,2.083-4.215,4.626l0,0l0.079,15.683
	c0.005,2.537,1.912,4.591,4.251,4.578c2.337-0.011,4.221-2.077,4.209-4.62L44.576,30.946L44.576,30.946z"/>
<path fill="#73A1A3" d="M60.733,30.87c-0.013-2.545-1.912-4.589-4.25-4.585c-2.339,0.01-4.222,2.084-4.215,4.625l0,0l0.073,15.689
	c0.01,2.536,1.918,4.589,4.257,4.579c2.334-0.013,4.221-2.084,4.212-4.626L60.733,30.87L60.733,30.87z"/>
<path fill="#73A1A3" d="M76.895,30.792c-0.013-2.542-1.921-4.589-4.259-4.58c-2.338,0.015-4.223,2.087-4.208,4.623l0,0l0.071,15.685
	c0.011,2.542,1.92,4.588,4.251,4.577c2.345-0.012,4.229-2.077,4.215-4.615L76.895,30.792L76.895,30.792z"/>
<path fill="#73A1A3" d="M93.043,30.719c-0.006-2.541-1.918-4.597-4.252-4.581c-2.338,0.013-4.22,2.081-4.211,4.622l0,0l0.074,15.685
	c0.015,2.539,1.917,4.594,4.253,4.581c2.337-0.01,4.225-2.083,4.21-4.618L93.043,30.719L93.043,30.719z"/>
<path fill="#73A1A3" d="M109.203,30.639c-0.015-2.537-1.919-4.586-4.259-4.579c-2.331,0.01-4.223,2.086-4.208,4.625l0,0
	l0.072,15.685c0.011,2.539,1.921,4.589,4.254,4.581c2.337-0.013,4.222-2.079,4.21-4.619L109.203,30.639L109.203,30.639z"/>
<path fill="#73A1A3" d="M125.355,30.733c-0.006-2.541-1.918-4.598-4.252-4.582c-2.338,0.013-4.22,2.081-4.211,4.622l0,0
	l0.074,15.684c0.015,2.539,1.917,4.594,4.253,4.581c2.337-0.01,4.225-2.083,4.21-4.618L125.355,30.733L125.355,30.733z"/>
<path fill="#73A1A3" d="M141.516,30.652c-0.015-2.537-1.919-4.586-4.259-4.579c-2.331,0.01-4.223,2.086-4.208,4.625l0,0
	l0.072,15.685c0.011,2.539,1.921,4.589,4.254,4.581c2.337-0.013,4.222-2.079,4.21-4.619L141.516,30.652L141.516,30.652z"/>
</svg>
